<?xml version="1.0" encoding="UTF-8"?>
<!DOCTYPE svg PUBLIC "-//W3C//DTD SVG 1.1//EN" "http://www.w3.org/Graphics/SVG/1.1/DTD/svg11.dtd">
<svg version="1.1" xmlns="http://www.w3.org/2000/svg" xmlns:xlink="http://www.w3.org/1999/xlink" x="0" y="0" width="142" height="142" viewBox="0, 0, 142, 142">
  <g id="Layer_1">
    <path d="M60.277,51.812 C59.493,48 63.372,43.969 68.414,43.023 C72.71,42.224 74.587,44.623 75.375,48.432 C76.156,52.24 75.505,58.096 71.703,58.881 C67.895,59.664 61.057,55.616 60.277,51.812" fill="#1A1919"/>
    <path d="M13.471,95.984 L128.529,95.984 L128.529,103.855 L13.471,103.855 z" fill="#1A1919"/>
    <path d="M95.971,53.189 C95.615,53.082 95.263,52.94 94.919,52.774 C95.263,52.94 95.615,53.082 95.971,53.189" fill="#1A1919"/>
    <path d="M95.195,38.145 C95.127,38.145 95.058,38.155 94.987,38.159 C95.385,38.145 95.788,38.165 96.19,38.23 C95.859,38.174 95.527,38.145 95.195,38.145" fill="#1A1919"/>
    <path d="M93.666,38.36 C94.033,38.256 94.411,38.198 94.795,38.171 C94.411,38.198 94.033,38.256 93.666,38.36" fill="#1A1919"/>
    <path d="M96.335,38.262 C96.687,38.328 97.035,38.424 97.383,38.546 C97.035,38.424 96.687,38.328 96.335,38.262" fill="#1A1919"/>
    <path d="M97.031,53.415 C96.696,53.37 96.357,53.3 96.022,53.2 C96.357,53.301 96.696,53.37 97.031,53.415" fill="#1A1919"/>
    <path d="M91.747,50.199 C91.481,49.86 91.228,49.506 91,49.122 C91.228,49.506 91.481,49.86 91.747,50.199" fill="#1A1919"/>
    <path d="M94.609,52.609 C94.372,52.481 94.134,52.348 93.903,52.194 C94.134,52.348 94.372,52.481 94.609,52.609" fill="#1A1919"/>
    <path d="M93.552,51.944 C93.344,51.788 93.135,51.622 92.937,51.446 C93.139,51.622 93.344,51.788 93.552,51.944" fill="#1A1919"/>
    <path d="M92.416,38.894 C92.771,38.682 93.145,38.529 93.529,38.409 C93.145,38.529 92.771,38.682 92.416,38.894" fill="#1A1919"/>
    <path d="M92.604,51.142 C92.399,50.943 92.204,50.729 92.016,50.507 C92.204,50.73 92.399,50.943 92.604,51.142" fill="#1A1919"/>
    <path d="M100.209,40.253 C100.473,40.49 100.725,40.746 100.97,41.023 C100.725,40.746 100.473,40.49 100.209,40.253" fill="#1A1919"/>
    <path d="M101.237,41.331 C101.537,41.701 101.826,42.092 102.08,42.521 C101.826,42.092 101.54,41.701 101.237,41.331" fill="#1A1919"/>
    <path d="M99.379,53.277 C99.053,53.366 98.721,53.415 98.386,53.446 C98.721,53.415 99.053,53.366 99.379,53.277" fill="#1A1919"/>
    <path d="M97.722,38.674 C98.034,38.803 98.344,38.952 98.649,39.123 C98.344,38.952 98.034,38.803 97.722,38.674" fill="#1A1919"/>
    <path d="M98.887,39.252 C99.255,39.477 99.613,39.736 99.958,40.024 C99.613,39.736 99.255,39.477 98.887,39.252" fill="#1A1919"/>
    <path d="M97.868,53.481 C97.956,53.481 98.044,53.467 98.135,53.463 C97.881,53.474 97.624,53.463 97.37,53.441 C97.536,53.454 97.702,53.481 97.868,53.481" fill="#1A1919"/>
    <path d="M102.08,42.521 C101.826,42.092 101.537,41.701 101.237,41.331 C101.149,41.225 101.061,41.124 100.97,41.023 C100.725,40.746 100.473,40.49 100.209,40.253 C100.124,40.177 100.041,40.095 99.958,40.024 C99.613,39.736 99.255,39.477 98.887,39.252 C98.808,39.205 98.728,39.167 98.649,39.123 C98.344,38.952 98.034,38.803 97.722,38.674 C97.607,38.628 97.494,38.585 97.383,38.546 C97.035,38.424 96.687,38.328 96.335,38.262 C96.288,38.253 96.239,38.236 96.19,38.23 C95.788,38.165 95.385,38.145 94.987,38.159 C94.921,38.161 94.857,38.166 94.795,38.171 C94.411,38.198 94.033,38.256 93.666,38.36 C93.62,38.373 93.574,38.393 93.529,38.409 C93.145,38.529 92.771,38.682 92.416,38.894 C89.354,40.719 88.728,45.295 91,49.122 C91.228,49.506 91.481,49.86 91.747,50.199 C91.833,50.307 91.928,50.404 92.016,50.507 C92.204,50.729 92.399,50.943 92.604,51.142 C92.712,51.247 92.821,51.347 92.937,51.446 C93.135,51.622 93.344,51.788 93.552,51.944 C93.669,52.028 93.786,52.115 93.903,52.194 C94.134,52.348 94.372,52.481 94.609,52.609 C94.714,52.663 94.814,52.725 94.919,52.774 C95.263,52.94 95.615,53.082 95.971,53.189 C95.986,53.195 96.006,53.195 96.022,53.2 C96.357,53.3 96.696,53.37 97.031,53.415 C97.146,53.432 97.256,53.432 97.37,53.441 C97.624,53.463 97.881,53.474 98.135,53.463 C98.22,53.46 98.301,53.454 98.386,53.446 C98.721,53.415 99.053,53.366 99.379,53.277 L102.012,57.885 L104.485,56.309 L101.862,51.716 C103.825,49.532 104.011,45.762 102.08,42.521" fill="#1A1919"/>
    <path d="M93.903,52.194 C93.786,52.115 93.669,52.028 93.552,51.944 C93.669,52.028 93.786,52.115 93.903,52.194" fill="#1A1919"/>
    <path d="M98.386,53.446 C98.301,53.454 98.22,53.46 98.135,53.463 C98.22,53.46 98.301,53.454 98.386,53.446" fill="#1A1919"/>
    <path d="M94.919,52.774 C94.814,52.725 94.714,52.663 94.609,52.609 C94.714,52.663 94.814,52.725 94.919,52.774" fill="#1A1919"/>
    <path d="M96.022,53.2 C96.006,53.195 95.986,53.195 95.971,53.189 C95.986,53.195 96.006,53.195 96.022,53.2" fill="#1A1919"/>
    <path d="M97.37,53.441 C97.256,53.432 97.146,53.432 97.031,53.415 C97.146,53.432 97.256,53.432 97.37,53.441" fill="#1A1919"/>
    <path d="M97.383,38.546 C97.494,38.585 97.607,38.628 97.722,38.674 C97.607,38.628 97.497,38.585 97.383,38.546" fill="#1A1919"/>
    <path d="M92.937,51.446 C92.821,51.347 92.712,51.247 92.604,51.142 C92.712,51.247 92.821,51.345 92.937,51.446" fill="#1A1919"/>
    <path d="M98.649,39.123 C98.728,39.167 98.808,39.205 98.887,39.252 C98.808,39.205 98.728,39.167 98.649,39.123" fill="#1A1919"/>
    <path d="M100.97,41.023 C101.061,41.124 101.149,41.225 101.237,41.331 C101.149,41.225 101.061,41.124 100.97,41.023" fill="#1A1919"/>
    <path d="M99.958,40.024 C100.041,40.095 100.124,40.177 100.209,40.253 C100.124,40.177 100.041,40.095 99.958,40.024" fill="#1A1919"/>
    <path d="M92.016,50.507 C91.928,50.404 91.833,50.307 91.747,50.199 C91.833,50.307 91.924,50.404 92.016,50.507" fill="#1A1919"/>
    <path d="M93.529,38.409 C93.574,38.393 93.62,38.373 93.666,38.36 C93.62,38.373 93.574,38.393 93.529,38.409" fill="#1A1919"/>
    <path d="M96.19,38.23 C96.239,38.236 96.288,38.253 96.335,38.262 C96.286,38.253 96.239,38.236 96.19,38.23" fill="#1A1919"/>
    <path d="M94.795,38.171 C94.857,38.166 94.921,38.161 94.987,38.159 C94.921,38.161 94.857,38.166 94.795,38.171" fill="#1A1919"/>
    <path d="M106.371,75.528 C106.351,74.19 107.419,73.096 108.75,73.074 C110.085,73.053 111.179,74.119 111.198,75.454 C111.221,76.788 110.153,77.885 108.822,77.905 C107.487,77.924 106.389,76.86 106.371,75.528" fill="#1A1919"/>
    <path d="M89.994,86.326 C90.004,86.348 90.017,86.379 90.026,86.404 C90.017,86.379 90.004,86.348 89.994,86.326" fill="#1A1919"/>
    <path d="M87.331,80.227 C87.868,81.453 88.744,83.452 89.414,84.991 C88.744,83.452 87.868,81.453 87.331,80.227" fill="#1A1919"/>
    <path d="M90.062,86.484 C90.111,86.599 90.16,86.71 90.195,86.796 C90.16,86.71 90.111,86.599 90.062,86.484" fill="#1A1919"/>
    <path d="M86.846,79.122 C86.846,79.122 86.892,79.223 86.957,79.376 C86.892,79.223 86.846,79.122 86.846,79.122" fill="#1A1919"/>
    <path d="M90.062,86.484 C90.049,86.456 90.038,86.434 90.026,86.404 C90.017,86.379 90.004,86.348 89.994,86.326 C89.838,85.964 89.639,85.503 89.414,84.991 C88.744,83.452 87.868,81.453 87.331,80.227 C87.168,79.858 87.041,79.566 86.957,79.376 C86.892,79.223 86.846,79.122 86.846,79.122 L69.115,78.774 L56.664,59.703 L50.979,69.336 L65.104,87.109 L90.336,87.139 C90.339,87.139 90.287,87.014 90.195,86.796 C90.16,86.71 90.111,86.599 90.062,86.484" fill="#1A1919"/>
    <path d="M63.873,87.801 L49.828,70.411 L35.379,93.046 L61.843,92.986 L64.972,88.11 L64.343,88.11 L63.873,87.801" fill="#1A1919"/>
    <path d="M105.873,57.403 L105.381,57.715 L102.907,59.291 L101.433,60.229 L99.059,56.076 L91.631,62.851 C88.031,62.948 85.687,62.851 81.23,62.66 L58.598,59.936 L69.978,77.498 L71.741,77.561 L76.264,70.512 C90.41,70.86 94.968,69.918 96.413,68.606 L107.578,58.248 L105.873,57.403" fill="#1A1919"/>
    <path d="M86.957,79.376 C87.041,79.566 87.168,79.858 87.331,80.227 C87.168,79.858 87.041,79.566 86.957,79.376" fill="#1A1919"/>
    <path d="M90.336,87.139 C90.339,87.141 90.287,87.015 90.195,86.796 C90.287,87.014 90.339,87.139 90.336,87.139" fill="#1A1919"/>
    <path d="M90.026,86.404 C90.038,86.434 90.049,86.456 90.062,86.484 C90.049,86.456 90.038,86.434 90.026,86.404" fill="#1A1919"/>
    <path d="M89.414,84.991 C89.639,85.503 89.838,85.964 89.994,86.326 C89.838,85.964 89.639,85.503 89.414,84.991" fill="#1A1919"/>
  </g>
</svg>
