<?xml version="1.0" encoding="UTF-8"?>
<!DOCTYPE svg PUBLIC "-//W3C//DTD SVG 1.1//EN" "http://www.w3.org/Graphics/SVG/1.1/DTD/svg11.dtd">
<svg version="1.1" xmlns="http://www.w3.org/2000/svg" xmlns:xlink="http://www.w3.org/1999/xlink" x="0" y="0" width="142" height="142" viewBox="0, 0, 142, 142">
  <g id="Layer_1">
    <path d="M94.503,31.691 C95.759,27.989 101.183,26.455 106.039,28.2 C110.18,29.686 110.59,32.726 109.333,36.429 C108.077,40.135 104.535,44.896 100.831,43.643 C97.126,42.388 93.246,35.392 94.503,31.691" fill="#1A1919"/>
    <path d="M78.908,40.334 C73.342,37.489 72.016,36.348 67.976,34.648 L51.694,41.399 L46.437,34.705 L64.519,26.957 C65.932,25.823 72.829,26.74 87.003,33.704 L78.908,40.334" fill="#1A1919"/>
    <path d="M57.315,59.253 L48.763,69.918 C48.763,69.918 66.005,73.639 66.012,73.652 C66.198,73.661 75.971,76.207 73.312,81.139 L64.898,100.91 L75.951,105.178 L85.978,79.426 C90.661,67.613 72.575,60.934 57.315,59.253" fill="#1A1919"/>
    <path d="M47.216,71.21 L18.664,105.012 L23.77,115.451 L60.342,74.045 C56.349,73.183 51.125,72.053 48.428,71.471 L47.216,71.21" fill="#1A1919"/>
    <path d="M115.675,41.07 C115.675,41.07 113.38,49.968 105.284,54.372 L95.646,44.26 L87.712,49.377 C87.712,49.377 87.921,49.583 88.288,49.942 C88.295,49.948 88.302,49.953 88.305,49.959 C88.478,50.125 88.689,50.332 88.923,50.558 C88.956,50.589 88.988,50.62 89.021,50.651 C89.262,50.882 89.529,51.141 89.821,51.419 C89.858,51.453 89.894,51.488 89.933,51.522 C90.229,51.807 90.554,52.113 90.896,52.435 C90.939,52.474 90.981,52.515 91.023,52.554 C91.374,52.883 91.742,53.226 92.126,53.581 C92.165,53.616 92.204,53.653 92.243,53.688 C92.644,54.056 93.058,54.435 93.484,54.821 L93.536,54.87 C94.431,55.676 95.368,56.506 96.313,57.311 C96.329,57.325 96.342,57.339 96.359,57.352 C96.814,57.741 97.273,58.123 97.726,58.494 C97.758,58.524 97.794,58.553 97.829,58.581 C98.266,58.939 98.696,59.283 99.122,59.615 C99.171,59.654 99.223,59.693 99.272,59.732 C99.685,60.052 100.089,60.355 100.483,60.64 C100.534,60.677 100.587,60.715 100.639,60.75 C101.027,61.029 101.398,61.284 101.755,61.515 C101.804,61.546 101.85,61.575 101.899,61.605 C102.25,61.829 102.585,62.03 102.902,62.196 C102.937,62.217 102.976,62.235 103.012,62.254 C103.327,62.415 103.617,62.549 103.881,62.64 C103.904,62.648 103.923,62.653 103.949,62.66 C104.213,62.747 104.454,62.801 104.655,62.801 C104.718,62.801 104.77,62.788 104.825,62.779 C104.87,62.772 104.919,62.772 104.958,62.759 C105.05,62.73 105.128,62.686 105.193,62.625 C105.193,62.625 118.239,58.06 123.334,44.396 C123.445,44.098 115.675,41.07 115.675,41.07" fill="#1A1919"/>
    <path d="M88.806,52.752 L88.669,52.624 L87.872,51.859 L87.768,51.758 L87.377,51.38 L87.15,51.158 L87.097,51.11 L87.091,51.104 L86.54,50.562 L85.063,49.102 L86.811,47.977 L94.743,42.86 L94.792,42.829 L88.432,34.587 L60.298,58.042 C66.226,58.911 72.514,60.528 77.641,62.985 L89.809,53.702 L89.75,53.648 C89.405,53.322 89.079,53.014 88.806,52.752" fill="#1A1919"/>
  </g>
</svg>
