<?xml version="1.0" encoding="UTF-8"?>
<!DOCTYPE svg PUBLIC "-//W3C//DTD SVG 1.1//EN" "http://www.w3.org/Graphics/SVG/1.1/DTD/svg11.dtd">
<svg version="1.1" xmlns="http://www.w3.org/2000/svg" xmlns:xlink="http://www.w3.org/1999/xlink" x="0" y="0" width="142" height="142" viewBox="0, 0, 142, 142">
  <g id="Layer_1">
    <path d="M91.269,7.046 L65.586,36.009 L29.617,12.072 L0.497,53.149 L0.497,59.001 L30.479,16.711 L66.168,40.459 L91.271,12.146 L141.236,68.333 L141.236,63.348 L91.269,7.046" fill="#1A1919"/>
    <path d="M19.46,72.359 L98.168,127.473 C98.794,127.89 103.436,130.702 106.441,126.406 L109.166,128.313 C105.132,134.072 98.51,131.747 96.282,130.211 L17.555,75.082 L19.46,72.359" fill="#1A1919"/>
    <path d="M99.783,58.285 C100.819,54.513 107.563,50.225 111.33,51.258 C115.107,52.292 116.957,57.611 115.505,62.562 C114.27,66.784 111.262,67.374 107.491,66.338 C103.712,65.303 98.752,62.052 99.783,58.285" fill="#1A1919"/>
    <path d="M86.083,69.543 C86.192,70.569 86.324,71.42 86.47,72.131 L49.998,46.13 L47.92,49.053 L46.449,48.003 L48.527,45.083 L46.663,43.752 L47.761,42.22 L49.623,43.544 L51.729,40.582 L53.201,41.629 L51.092,44.593 L86.083,69.543" fill="#1A1919"/>
    <path d="M79.514,62.011 L78.543,62.124 L62.183,50.462 L63.087,50.301 L86.656,46.098 C86.116,52.437 85.862,57.399 85.808,61.284 L79.514,62.011" fill="#1A1919"/>
    <path d="M60.414,66.174 C60.414,66.174 57.668,64.431 53.433,61.773 L56.827,53.842 L57.092,53.228 L77.61,67.854 C77.862,68.288 78.099,68.728 78.323,69.169 C81.818,76.048 81.81,83.797 73.486,90.124 L59.8,97.306 L50.139,89.993 L67.504,79.487 C69.184,77.552 68.16,70.415 60.414,66.174" fill="#1A1919"/>
    <path d="M107.839,79.578 L103.377,87.435 L89.761,74.2 C87.922,72.357 87.572,62.269 89.01,45.729 L97.897,51.193 C97.231,57.732 96.812,64.156 96.68,68.765 L107.839,79.578" fill="#1A1919"/>
  </g>
</svg>
