<?xml version="1.0" encoding="UTF-8"?>
<!DOCTYPE svg PUBLIC "-//W3C//DTD SVG 1.1//EN" "http://www.w3.org/Graphics/SVG/1.1/DTD/svg11.dtd">
<svg version="1.1" xmlns="http://www.w3.org/2000/svg" xmlns:xlink="http://www.w3.org/1999/xlink" x="0" y="0" width="142" height="142" viewBox="0, 0, 142, 142">
  <g id="Layer_1">
    <path d="M88.31,63.241 C88.798,59.384 93.771,56.816 98.849,57.551 C103.173,58.183 104.175,61.057 103.689,64.914 C103.199,68.772 100.691,74.111 96.841,73.622 C92.979,73.13 87.82,67.095 88.31,63.241" fill="#1A1919"/>
    <path d="M62.25,38.978 C62.25,38.978 62.222,38.968 62.169,38.956 C62.157,38.953 62.127,38.948 62.111,38.944 C62.059,38.932 62,38.921 61.915,38.906 C61.878,38.901 61.821,38.896 61.777,38.89 C61.688,38.878 61.597,38.867 61.479,38.857 C61.414,38.852 61.328,38.851 61.255,38.846 C61.128,38.839 61,38.833 60.85,38.831 C60.644,38.829 60.421,38.834 60.167,38.847 C60.122,38.849 60.069,38.854 60.024,38.857 C59.799,38.872 59.556,38.893 59.292,38.922 C59.194,38.934 59.09,38.946 58.986,38.96 C58.732,38.992 58.46,39.033 58.174,39.082 C58.071,39.1 57.977,39.114 57.871,39.134 C57.482,39.205 57.065,39.292 56.618,39.398 C56.517,39.422 56.405,39.451 56.299,39.477 C55.936,39.569 55.552,39.671 55.148,39.786 C54.985,39.834 54.818,39.883 54.648,39.933 C54.224,40.062 53.776,40.206 53.309,40.364 C53.179,40.408 53.058,40.447 52.924,40.493 C52.329,40.701 51.701,40.937 51.04,41.197 C50.866,41.266 50.68,41.344 50.503,41.417 C49.982,41.629 49.442,41.857 48.88,42.103 C48.651,42.203 48.421,42.304 48.185,42.412 C47.528,42.71 46.842,43.03 46.131,43.377 C46.011,43.436 45.896,43.486 45.776,43.546 C44.95,43.955 44.076,44.405 43.179,44.886 C42.921,45.021 42.655,45.169 42.394,45.311 C41.694,45.692 40.972,46.095 40.226,46.522 C39.933,46.689 39.643,46.854 39.344,47.029 C38.325,47.622 37.28,48.244 36.181,48.925 L40.851,54.657 C40.851,54.657 40.893,54.634 40.951,54.605 C40.975,54.592 40.977,54.592 41.007,54.575 C41.089,54.533 41.208,54.472 41.357,54.394 C41.382,54.38 41.406,54.367 41.434,54.355 C41.593,54.27 41.778,54.175 41.997,54.065 C42.035,54.045 42.074,54.025 42.113,54.006 C42.333,53.896 42.569,53.775 42.837,53.642 C42.86,53.628 42.879,53.618 42.902,53.609 C43.174,53.472 43.475,53.325 43.788,53.173 C43.854,53.14 43.917,53.108 43.986,53.075 C44.297,52.925 44.625,52.766 44.969,52.603 C45.049,52.564 45.128,52.529 45.21,52.489 C45.565,52.323 45.933,52.15 46.312,51.975 C46.378,51.946 46.447,51.916 46.514,51.884 C46.886,51.714 47.267,51.545 47.658,51.372 C47.706,51.35 47.754,51.327 47.804,51.308 C48.211,51.128 48.624,50.949 49.044,50.774 C49.136,50.735 49.227,50.696 49.318,50.659 C49.731,50.487 50.148,50.318 50.568,50.151 C50.659,50.116 50.75,50.08 50.84,50.044 C51.271,49.875 51.699,49.712 52.125,49.556 C52.191,49.533 52.254,49.511 52.319,49.488 C52.739,49.338 53.159,49.192 53.569,49.058 C53.608,49.045 53.646,49.032 53.683,49.019 C54.106,48.882 54.523,48.759 54.93,48.642 C55.003,48.622 55.078,48.599 55.151,48.579 C55.547,48.472 55.929,48.378 56.299,48.296 C56.371,48.28 56.437,48.267 56.505,48.254 C56.881,48.176 57.245,48.111 57.586,48.066 C57.623,48.062 57.658,48.059 57.694,48.056 C58.035,48.013 58.359,47.99 58.66,47.988 C58.674,47.988 58.693,47.984 58.708,47.984 C58.712,47.984 58.715,47.988 58.721,47.988 C59.1,47.988 59.444,48.023 59.745,48.095 C59.754,48.098 59.764,48.098 59.77,48.101 C60.076,48.176 60.338,48.293 60.545,48.459 C62.457,49.973 66.54,57.808 66.54,57.808 L79.56,60.087 C79.56,60.087 67.381,39.241 62.25,38.978" fill="#1A1919"/>
    <path d="M136.997,84.872 L25.193,84.872 L14.291,80.933 L132.322,80.933 L136.997,84.872" fill="#1A1919"/>
    <path d="M113.183,93.694 L14.614,93.694 L5.003,89.755 L109.061,89.755 L113.183,93.694" fill="#1A1919"/>
    <path d="M130.126,103.169 L40.763,103.169 L32.049,99.231 L126.393,99.231 L130.126,103.169" fill="#1A1919"/>
    <path d="M89.735,75.777 L81.015,62.033 L79.272,61.728 L66.251,59.452 L65.962,59.4 L33.534,75.777 L89.735,75.777" fill="#1A1919"/>
  </g>
</svg>
