<?xml version="1.0" encoding="UTF-8"?>
<!DOCTYPE svg PUBLIC "-//W3C//DTD SVG 1.1//EN" "http://www.w3.org/Graphics/SVG/1.1/DTD/svg11.dtd">
<svg version="1.1" xmlns="http://www.w3.org/2000/svg" xmlns:xlink="http://www.w3.org/1999/xlink" x="0" y="0" width="142" height="142" viewBox="0, 0, 142, 142">
  <g id="Layer_1">
    <path d="M125.286,116.722 C125.36,111.829 121.451,107.804 116.56,107.732 C111.674,107.661 107.657,111.567 107.585,116.459 C107.512,121.349 111.415,125.366 116.3,125.44 C121.192,125.512 125.214,121.608 125.286,116.722" fill="#1A1919"/>
    <path d="M71.486,78.251 L76.633,80.055 L88.935,89.329 C91.764,88.676 96.672,82.075 96.672,82.075 C96.428,81.894 74.317,63.833 74.317,63.833 C74.317,63.833 54.739,68.361 54.749,68.726 C55.267,84.69 65.048,93.959 65.048,93.959 L85.709,123.983 L96.648,123.588 L75.728,90.304 L71.486,78.251" fill="#1A1919"/>
    <path d="M95.067,86.623 C93.31,88.532 91.112,90.537 89.309,90.954 L88.551,91.127 L87.931,90.661 L78.817,83.789 L78.601,83.986 L88.85,95.364 L95.324,90.754 L95.067,86.623" fill="#1A1919"/>
    <path d="M21.213,25.33 L52.309,35.493 C52.934,31.777 53.548,28.79 53.895,27.177 L16.713,16.56 L21.213,25.33" fill="#1A1919"/>
    <path d="M100.743,63.857 L86.679,54.821 C85.031,51.699 83.993,44.453 82.184,39.275 C81.066,41.729 79.061,46.351 77.326,51.465 C78.746,56.159 80.705,59.268 81.784,60.228 L100.979,73.009 L100.743,63.857" fill="#1A1919"/>
    <path d="M72.994,18.45 C72.872,18.352 72.721,18.291 72.59,18.203 C72.314,18.017 72.043,17.825 71.734,17.687 C71.549,17.605 71.34,17.563 71.145,17.498 C70.856,17.4 70.574,17.288 70.263,17.226 C70.035,17.18 69.791,17.175 69.554,17.149 C69.251,17.115 68.956,17.068 68.644,17.065 C68.323,17.063 67.994,17.104 67.666,17.133 C67.433,17.154 67.205,17.154 66.969,17.192 C66.617,17.247 66.266,17.35 65.913,17.441 C65.693,17.498 65.475,17.532 65.257,17.602 C64.869,17.727 64.485,17.901 64.101,18.071 C63.924,18.149 63.74,18.204 63.564,18.292 C63.011,18.569 62.467,18.891 61.946,19.26 C58.365,21.809 58.784,24.848 60.987,28.077 C61.181,28.36 61.399,28.647 61.627,28.932 C61.679,28.994 61.728,29.057 61.78,29.119 C62.013,29.4 62.259,29.679 62.519,29.952 C62.553,29.988 62.589,30.021 62.623,30.056 C62.866,30.305 63.12,30.546 63.382,30.782 C63.437,30.831 63.491,30.881 63.546,30.93 C63.834,31.181 64.13,31.418 64.436,31.643 C64.495,31.687 64.554,31.728 64.614,31.77 C64.898,31.974 65.19,32.164 65.484,32.336 C65.523,32.359 65.562,32.385 65.602,32.408 C65.922,32.59 66.246,32.747 66.572,32.883 C66.642,32.915 66.713,32.942 66.785,32.97 C67.117,33.1 67.451,33.212 67.783,33.286 C67.786,33.286 67.792,33.286 67.797,33.287 C68.121,33.357 68.44,33.388 68.759,33.396 C68.851,33.399 68.943,33.404 69.036,33.401 C69.121,33.398 69.205,33.391 69.29,33.383 C69.42,33.37 69.549,33.351 69.677,33.326 C69.759,33.31 69.84,33.293 69.921,33.272 C70.055,33.238 70.189,33.189 70.32,33.139 C70.39,33.111 70.459,33.09 70.527,33.059 C70.726,32.97 70.917,32.866 71.107,32.737 C74.335,30.525 76.187,22.747 73.986,19.521 C73.707,19.112 73.373,18.756 72.994,18.45" fill="#1A1919"/>
    <path d="M72.274,33.928 C72.196,33.989 72.125,34.06 72.045,34.114 C71.109,34.753 70.045,35.078 68.883,35.078 C65.354,35.078 61.605,31.936 59.61,29.016 C59.557,28.94 59.518,28.867 59.469,28.79 L55.59,27.234 C54.498,32.325 49.908,53.32 54.352,66.654 C56.6,65.934 61.852,64.917 73.518,62.07 C74.63,52.349 79.685,40.641 81.164,37.496 L72.274,33.928" fill="#1A1919"/>
  </g>
</svg>
