<?xml version="1.0" encoding="UTF-8"?>
<!DOCTYPE svg PUBLIC "-//W3C//DTD SVG 1.1//EN" "http://www.w3.org/Graphics/SVG/1.1/DTD/svg11.dtd">
<svg version="1.1" xmlns="http://www.w3.org/2000/svg" xmlns:xlink="http://www.w3.org/1999/xlink" x="0" y="0" width="142" height="142" viewBox="0, 0, 142, 142">
  <g id="Layer_1">
    <path d="M72.882,8.918 C69.606,8.965 66.987,11.663 67.034,14.944 C67.082,18.218 69.777,20.834 73.057,20.787 C76.333,20.736 78.95,18.044 78.898,14.766 C78.849,11.487 76.157,8.87 72.882,8.918" fill="#1A1919"/>
    <path d="M73.714,36.26 C74.626,32.544 79.777,30.58 84.659,31.845 C88.819,32.93 89.48,35.85 88.572,39.567 C87.663,43.282 84.616,48.225 80.902,47.328 C77.183,46.434 72.808,39.976 73.714,36.26" fill="#1A1919"/>
    <path d="M63.788,76.685 C63.788,76.685 63.508,76.947 63.075,77.355 C60.949,79.357 54.605,85.306 53.445,86.173 C53.413,86.2 53.41,86.197 53.383,86.212 C53.34,86.242 53.285,86.281 53.272,86.281 L53.271,86.281 L52.646,78.575 L41.498,78.165 C41.98,91.053 48.257,99.487 50.249,102.033 L63.788,92.486 L64.728,93.758 L51.84,104.101 L22.608,119.868 L21.711,133.082 L57.25,113.647 C57.25,113.647 70.82,103.027 75.495,97.736 C84.674,87.349 63.788,76.685 63.788,76.685" fill="#1A1919"/>
    <path d="M72.14,48.218 C72.098,48.218 68.23,62.961 65.774,72.347 C65.726,72.531 65.679,72.711 65.632,72.892 C65.402,73.771 65.187,74.595 64.989,75.35 C64.981,75.376 64.976,75.399 64.968,75.425 C67.073,76.561 76.549,81.994 78.937,88.975 L92.383,64.505 L91.243,51.551 L72.14,48.218" fill="#1A1919"/>
    <path d="M70.652,47.531 L56.642,41.105 C58.238,31.345 66.441,25.866 66.441,25.866 C66.441,25.866 60.617,19.066 60.352,19.286 C48.316,29.288 48.312,44.124 48.312,44.124 C47.356,46.322 61.317,54.159 67.892,57.701 C68.013,57.242 70.514,47.828 70.652,47.531" fill="#1A1919"/>
    <path d="M117.39,74.274 L105.808,66.096 L92.994,52.44 L94.044,64.359 L94.089,64.865 L93.844,65.308 L93.008,66.831 L100.563,74.806 L120.289,87.588 L117.39,74.274" fill="#1A1919"/>
  </g>
</svg>
