<?xml version="1.0" encoding="UTF-8"?>
<!DOCTYPE svg PUBLIC "-//W3C//DTD SVG 1.1//EN" "http://www.w3.org/Graphics/SVG/1.1/DTD/svg11.dtd">
<svg version="1.1" xmlns="http://www.w3.org/2000/svg" xmlns:xlink="http://www.w3.org/1999/xlink" x="0" y="0" width="142" height="142" viewBox="0, 0, 142, 142">
  <g id="Layer_1">
    <g id="system-000000095855964">
      <g>
        <path d="M6.885,48.335 L6.885,98.217" fill="#000000"/>
        <path d="M6.885,48.335 L6.885,98.217" fill-opacity="0" stroke="#000000" stroke-width="2"/>
      </g>
      <g id="staff-000000194959144">
        <g>
          <path d="M6.885,49.332 L135.115,49.332" fill="#000000"/>
          <path d="M6.885,49.332 L135.115,49.332" fill-opacity="0" stroke="#000000" stroke-width="2"/>
        </g>
        <g>
          <path d="M6.885,61.304 L135.115,61.304" fill="#000000"/>
          <path d="M6.885,61.304 L135.115,61.304" fill-opacity="0" stroke="#000000" stroke-width="2"/>
        </g>
        <g>
          <path d="M6.885,73.276 L135.115,73.276" fill="#000000"/>
          <path d="M6.885,73.276 L135.115,73.276" fill-opacity="0" stroke="#000000" stroke-width="2"/>
        </g>
        <g>
          <path d="M6.885,85.248 L135.115,85.248" fill="#000000"/>
          <path d="M6.885,85.248 L135.115,85.248" fill-opacity="0" stroke="#000000" stroke-width="2"/>
        </g>
        <g>
          <path d="M6.885,97.219 L135.115,97.219" fill="#000000"/>
          <path d="M6.885,97.219 L135.115,97.219" fill-opacity="0" stroke="#000000" stroke-width="2"/>
        </g>
        <g id="layer-000000035831516">
          <g>
            <path d="M42.201,101.542 C40.672,101.808 39.009,101.941 37.147,101.941 C33.223,101.941 30.363,101.476 28.5,100.611 C22.648,97.818 18.524,94.426 16.063,90.369 C14.334,87.442 13.203,83.518 12.871,78.663 C12.605,74.673 13.602,70.482 15.797,66.093 C17.726,62.302 20.12,59.043 23.113,56.249 C26.106,53.456 29.498,50.596 33.289,47.803 C33.09,46.739 32.757,44.743 32.425,41.684 C32.158,38.824 32.092,36.829 32.092,35.764 C32.092,27.983 33.156,24.325 36.681,18.672 C38.942,15.08 40.938,13.218 42.6,13.218 C43.997,13.218 45.46,15.213 47.19,19.337 C48.919,23.46 49.783,26.985 49.916,29.912 C50.05,37.893 48.653,41.418 45.46,46.938 C44.596,48.268 41.27,52.924 38.942,54.786 C38.078,55.385 37.28,56.05 36.482,56.715 L38.543,68.753 C39.075,68.687 39.741,68.62 40.406,68.62 C44.263,68.62 47.19,69.418 49.251,70.948 C53.175,73.808 55.37,77.865 55.769,83.186 C56.501,92.164 50.449,98.416 43.798,101.143 C44.33,104.934 44.928,108.459 45.46,111.918 C45.793,113.98 45.859,115.775 45.859,117.239 C45.859,119.234 45.527,120.764 44.928,121.894 C42.6,126.151 39.075,128.479 34.42,128.745 C31.626,128.944 28.9,128.346 26.173,127.015 C22.847,125.419 21.051,123.091 20.852,120.032 C20.719,117.771 21.184,115.842 22.182,114.246 C23.379,112.383 25.175,111.452 27.436,111.319 C30.828,111.053 34.021,113.98 34.287,117.106 C34.553,120.83 32.291,123.357 27.303,124.754 C28.434,126.35 30.695,127.148 34.087,127.148 C38.211,127.148 41.802,124.289 43.399,121.495 C43.997,120.431 44.263,118.768 44.263,116.573 C44.263,115.243 44.197,113.78 43.931,112.117 C43.399,108.592 42.733,105.067 42.201,101.542 z M43.532,22.795 C37.213,22.795 34.553,34.434 34.553,41.817 C34.553,43.413 34.686,45.009 34.885,46.539 C38.211,43.945 41.004,41.085 43.332,38.026 C46.192,34.235 47.522,30.976 47.323,28.182 C47.057,24.591 45.793,22.729 43.532,22.795 z M39.874,77.333 L43.465,99.015 C48.786,97.219 51.18,93.162 50.715,86.777 C50.249,80.193 46.591,77.067 39.874,77.333 z M38.277,77.466 C33.356,77.599 29.498,80.791 29.764,85.913 C29.897,88.972 32.624,92.497 34.752,93.561 C34.553,93.694 34.287,93.894 34.087,94.226 C29.432,92.031 26.372,88.373 25.907,82.787 C25.574,77.931 28.7,73.808 31.759,71.48 C33.289,70.349 35.018,69.551 36.947,69.086 L35.018,57.779 C33.622,58.644 31.56,60.24 28.9,62.634 C25.574,65.561 23.18,68.221 21.65,70.549 C18.391,75.537 16.928,79.86 17.194,83.518 C17.526,88.041 19.522,91.965 23.379,95.224 C27.237,98.483 31.693,100.079 36.881,100.079 C38.543,100.079 40.206,99.88 41.869,99.481 C40.605,92.098 39.475,84.782 38.277,77.466 z" fill="#000000"/>
            <path d="M42.201,101.542 C40.672,101.808 39.009,101.941 37.147,101.941 C33.223,101.941 30.363,101.476 28.5,100.611 C22.648,97.818 18.524,94.426 16.063,90.369 C14.334,87.442 13.203,83.518 12.871,78.663 C12.605,74.673 13.602,70.482 15.797,66.093 C17.726,62.302 20.12,59.043 23.113,56.249 C26.106,53.456 29.498,50.596 33.289,47.803 C33.09,46.739 32.757,44.743 32.425,41.684 C32.158,38.824 32.092,36.829 32.092,35.764 C32.092,27.983 33.156,24.325 36.681,18.672 C38.942,15.08 40.938,13.218 42.6,13.218 C43.997,13.218 45.46,15.213 47.19,19.337 C48.919,23.46 49.783,26.985 49.916,29.912 C50.05,37.893 48.653,41.418 45.46,46.938 C44.596,48.268 41.27,52.924 38.942,54.786 C38.078,55.385 37.28,56.05 36.482,56.715 L38.543,68.753 C39.075,68.687 39.741,68.62 40.406,68.62 C44.263,68.62 47.19,69.418 49.251,70.948 C53.175,73.808 55.37,77.865 55.769,83.186 C56.501,92.164 50.449,98.416 43.798,101.143 C44.33,104.934 44.928,108.459 45.46,111.918 C45.793,113.98 45.859,115.775 45.859,117.239 C45.859,119.234 45.527,120.764 44.928,121.894 C42.6,126.151 39.075,128.479 34.42,128.745 C31.626,128.944 28.9,128.346 26.173,127.015 C22.847,125.419 21.051,123.091 20.852,120.032 C20.719,117.771 21.184,115.842 22.182,114.246 C23.379,112.383 25.175,111.452 27.436,111.319 C30.828,111.053 34.021,113.98 34.287,117.106 C34.553,120.83 32.291,123.357 27.303,124.754 C28.434,126.35 30.695,127.148 34.087,127.148 C38.211,127.148 41.802,124.289 43.399,121.495 C43.997,120.431 44.263,118.768 44.263,116.573 C44.263,115.243 44.197,113.78 43.931,112.117 C43.399,108.592 42.733,105.067 42.201,101.542 z M43.532,22.795 C37.213,22.795 34.553,34.434 34.553,41.817 C34.553,43.413 34.686,45.009 34.885,46.539 C38.211,43.945 41.004,41.085 43.332,38.026 C46.192,34.235 47.522,30.976 47.323,28.182 C47.057,24.591 45.793,22.729 43.532,22.795 z M39.874,77.333 L43.465,99.015 C48.786,97.219 51.18,93.162 50.715,86.777 C50.249,80.193 46.591,77.067 39.874,77.333 z M38.277,77.466 C33.356,77.599 29.498,80.791 29.764,85.913 C29.897,88.972 32.624,92.497 34.752,93.561 C34.553,93.694 34.287,93.894 34.087,94.226 C29.432,92.031 26.372,88.373 25.907,82.787 C25.574,77.931 28.7,73.808 31.759,71.48 C33.289,70.349 35.018,69.551 36.947,69.086 L35.018,57.779 C33.622,58.644 31.56,60.24 28.9,62.634 C25.574,65.561 23.18,68.221 21.65,70.549 C18.391,75.537 16.928,79.86 17.194,83.518 C17.526,88.041 19.522,91.965 23.379,95.224 C27.237,98.483 31.693,100.079 36.881,100.079 C38.543,100.079 40.206,99.88 41.869,99.481 C40.605,92.098 39.475,84.782 38.277,77.466 z" fill-opacity="0" stroke="#000000" stroke-width="2"/>
          </g>
          <g id="beam-000000158457582">
            <g>
              <path d="M67.741,105.799 C67.741,101.276 72.596,94.359 81.043,94.359 C85.433,94.359 88.625,96.82 88.625,100.678 C88.625,106.265 81.575,112.051 74.126,112.051 C69.869,112.051 67.741,110.056 67.741,105.799 z" fill="#000000"/>
              <path d="M67.741,105.799 C67.741,101.276 72.596,94.359 81.043,94.359 C85.433,94.359 88.625,96.82 88.625,100.678 C88.625,106.265 81.575,112.051 74.126,112.051 C69.869,112.051 67.741,110.056 67.741,105.799 z" fill-opacity="0" stroke="#000000" stroke-width="2"/>
            </g>
            <g>
              <path d="M97.67,99.813 C97.67,95.29 102.525,88.373 110.972,88.373 C115.362,88.373 118.554,90.834 118.554,94.692 C118.554,100.279 111.504,106.065 104.055,106.065 C99.799,106.065 97.67,104.07 97.67,99.813 z" fill="#000000"/>
              <path d="M97.67,99.813 C97.67,95.29 102.525,88.373 110.972,88.373 C115.362,88.373 118.554,90.834 118.554,94.692 C118.554,100.279 111.504,106.065 104.055,106.065 C99.799,106.065 97.67,104.07 97.67,99.813 z" fill-opacity="0" stroke="#000000" stroke-width="2"/>
            </g>
            <g>
              <path d="M82.107,101.742 L82.107,59.708" fill="#000000"/>
              <path d="M82.107,101.742 L82.107,59.708" fill-opacity="0" stroke="#000000" stroke-width="2"/>
            </g>
            <g>
              <path d="M112.036,95.756 L112.036,56.648" fill="#000000"/>
              <path d="M112.036,95.756 L112.036,56.648" fill-opacity="0" stroke="#000000" stroke-width="2"/>
            </g>
            <g>
              <path d="M81.442,58.378 L112.701,55.318 L112.701,61.304 L81.442,64.364 z" fill="#000000"/>
              <path d="M81.442,58.378 L112.701,55.318 L112.701,61.304 L81.442,64.364 z" fill-opacity="0" stroke="#000000" stroke-width="2"/>
            </g>
          </g>
        </g>
      </g>
    </g>
  </g>
</svg>
