<?xml version="1.0" encoding="UTF-8"?>
<!DOCTYPE svg PUBLIC "-//W3C//DTD SVG 1.1//EN" "http://www.w3.org/Graphics/SVG/1.1/DTD/svg11.dtd">
<svg version="1.1" xmlns="http://www.w3.org/2000/svg" xmlns:xlink="http://www.w3.org/1999/xlink" x="0" y="0" width="1024" height="1024" viewBox="0, 0, 1024, 1024">
  <g id="Turnen_&amp;_Leichtathletik" display="none">
    <g>
      <path d="M403.379,250.239 C450.933,244.73 485.098,201.287 479.63,153.184 C474.203,105.082 431.226,70.56 383.699,76.056 C336.145,81.565 302.007,125.008 307.448,173.11 C312.861,221.213 355.825,255.734 403.379,250.239 z" fill="#010002"/>
      <path d="M901.288,867.951 C833.999,752.409 624.719,379.101 589.978,318.172 C657.801,296.286 719.773,316.267 768.505,385.309 C808.139,441.47 900.835,387.625 860.722,330.78 C766.409,197.162 625.747,163.983 484.934,248.539 C479.041,252.061 452.66,266.807 446.712,270.384 C359.127,322.941 277.805,312.991 217.04,226.9 C177.366,170.726 84.669,224.598 124.796,281.43 C202.349,391.257 311.189,433.165 425.703,397.657 C461.609,460.04 495.719,523.559 528.473,587.682 C480.055,612.693 435.214,643.912 393.539,680.612 C368.926,702.306 372.969,730.756 389.496,749.929 C393.498,758.672 520.853,839.898 576.013,873.392 C635.203,909.352 688.897,815.916 629.927,780.106 C594.268,758.467 558.636,736.8 522.991,715.133 C557.321,691.74 645.508,653.148 650.182,649.421 C703.108,740.5 756.144,831.443 809.084,922.467 C843.921,982.438 936.275,928.1 901.288,867.951 z" fill="#010002"/>
    </g>
  </g>
  <g id="Tischtennis" display="none">
    <g>
      <path d="M973.452,763.141 C875.637,702.416 795.14,613.654 717.286,528.378 C713.556,521.031 708.215,513.909 700.812,507.2 C652.082,463.118 609.482,413.321 566.506,363.861 C620.933,311.533 677.159,261.173 735.503,213.156 C783.576,173.554 714.868,105.689 667.245,144.916 C602.266,198.35 540.005,254.707 479.843,313.501 C463.894,315.769 448.6,322.797 437.543,334.042 C434.731,336.891 432.314,339.908 430.102,342.982 C417.133,350.198 407.893,363.636 408.567,383.352 C409.748,417.875 410.535,460.457 384.896,487.221 C360.344,512.878 311.915,499.459 283.052,491.231 C262.473,485.384 245.98,492.506 235.597,505.044 L214.756,500.434 C214.681,461.825 187.955,427.077 148.728,418.437 C103.316,408.448 39.069,437.161 29.079,482.554 C19.108,527.947 67.107,572.89 112.519,582.842 C151.783,591.482 190.635,571.166 206.903,536.175 L223.396,539.792 C223.471,558.871 233.742,577.576 257.432,584.286 C320.274,602.128 389.338,606.289 443.278,563.838 C465.956,545.977 480.818,522.362 490.376,496.292 C520.251,530.496 550.632,564.232 583.505,595.606 C517.252,652.825 481.418,741.25 461.814,830.537 C448.488,891.167 541.542,916.975 554.905,856.195 C573.947,769.494 605.49,676.534 691.066,641.861 C762.117,717.879 837.01,791.928 924.779,846.411 C977.8,879.435 1026.248,795.902 973.452,763.141 z" fill="#010002"/>
      <path d="M450.643,272.325 C450.643,320.301 411.751,359.194 363.774,359.194 C315.797,359.194 276.905,320.301 276.905,272.325 C276.905,224.348 315.797,185.455 363.774,185.455 C411.751,185.455 450.643,224.348 450.643,272.325 z" fill="#010002"/>
      <path d="M233.686,393.098 C233.686,409.981 220,423.666 203.117,423.666 C186.235,423.666 172.549,409.981 172.549,393.098 C172.549,376.216 186.235,362.53 203.117,362.53 C220,362.53 233.686,376.216 233.686,393.098 z" fill="#010002"/>
    </g>
  </g>
  <g id="Tennis">
    <g>
      <path d="M764.256,238.093 C747.958,230.711 728.767,237.942 721.388,254.234 L686.274,331.764 C686.274,331.764 600.502,366.587 585.382,371.487 C556.062,380.984 521.202,378.012 467.534,392.247 L365.818,417.341 L294.396,364.02 C307.842,340.681 330.522,301.294 336.194,291.337 C342.33,280.559 356.126,265.985 363.103,258.928 C377.731,261.128 393.165,259.184 408.225,253.254 C431.973,243.905 452.619,225.474 466.36,201.346 C480.087,177.23 485.401,150.069 481.319,124.864 C477.031,98.408 463.029,77.208 441.889,65.17 C430.228,58.534 417.37,55.167 403.68,55.167 C392.671,55.167 381.482,57.375 370.423,61.731 C346.664,71.085 326.02,89.518 312.293,113.634 C298.56,137.746 293.245,164.91 297.328,190.119 C299.91,206.062 306.184,220.442 315.513,231.856 C313.108,241.253 307.782,260.196 301.346,271.499 C295.526,281.713 265.194,334.374 255.228,351.682 L254.548,352.856 C252.169,354.113 249.938,355.751 247.974,357.804 C238.052,368.158 238.393,384.602 248.753,394.531 L337.424,479.539 C343.767,485.539 352.817,488.769 362.119,487.331 L366.203,486.7 L454.239,473.137 L478.965,655.391 L414.726,924.068 C411.349,941.924 421.286,960.121 438.919,966.542 C458.521,973.682 480.197,963.58 487.335,943.978 L578.397,721.062 L613.996,796.303 L588.464,925.134 C584.49,946.01 601.11,963.163 621.169,966.331 C642.375,969.677 660.8,955.213 665.619,933.996 L702.224,792.982 C703.154,786.954 702.633,780.456 700.344,774.337 L699.05,770.871 L663.034,674.497 L630.543,437.927 L727.012,394.756 L729.653,393.574 C737.548,390.005 744.048,383.354 747.181,374.546 L781.401,278.458 C786.937,262.784 779.685,245.085 764.256,238.093 z M339.561,129.165 C354.294,103.288 379.413,86.566 403.558,86.566 C411.833,86.566 419.504,88.546 426.36,92.444 C453.797,108.068 459.503,149.958 439.08,185.825 C424.353,211.7 399.234,228.421 375.085,228.421 C366.81,228.421 359.137,226.443 352.286,222.541 C339.183,215.083 330.586,201.37 328.079,183.928 C325.518,166.119 329.594,146.668 339.561,129.165 z" fill="#000000"/>
      <path d="M442.682,285.846 C437.751,327.934 467.879,366.035 509.967,370.96 C552.051,375.885 590.16,345.757 595.083,303.671 C600.004,261.589 569.874,223.48 527.79,218.559 C485.704,213.632 447.597,243.76 442.682,285.846 z" fill="#000000"/>
      <path d="M742.206,164.218 C742.206,180.227 729.228,193.205 713.219,193.205 C697.21,193.205 684.232,180.227 684.232,164.218 C684.232,148.209 697.21,135.231 713.219,135.231 C729.228,135.231 742.206,148.209 742.206,164.218 z" fill="#000000"/>
    </g>
  </g>
  <g id="Schwimmen" display="none">
    <g>
      <path d="M160.968,334.863 L378.768,362.863 C386.369,382.163 424.668,477.163 431.869,494.163 C431.869,494.163 431.869,494.163 431.768,494.163 C368.668,525.363 305.568,556.463 242.468,587.663 C264.368,583.663 286.568,581.663 308.868,581.663 C338.068,581.663 366.668,585.163 393.968,592.063 C449.068,606.063 498.868,628.462 546.968,650.163 C589.868,669.463 630.468,687.764 670.968,698.264 C676.668,699.764 682.168,701.064 687.668,702.163 C639.668,603.863 510.568,338.963 485.068,280.663 C473.068,253.163 456.568,242.963 433.169,239.963 L177.369,207.063 C142.069,202.563 109.769,227.463 105.169,262.763 C100.768,298.063 125.668,330.363 160.968,334.863 z" fill="#000000"/>
      <path d="M58.068,794.263 C65.168,799.363 73.268,801.763 81.368,801.763 C83.168,801.763 84.868,801.662 86.568,801.363 C97.168,799.963 107.168,794.363 113.868,785.063 C139.768,748.962 179.868,720.563 226.568,704.962 C253.368,696.063 281.368,691.563 308.868,691.563 C408.568,691.563 494.068,751.163 584.067,785.462 C632.267,803.862 682.567,817.462 737.267,817.462 C760.267,817.462 784.067,815.063 808.767,809.563 C866.868,796.763 916.667,769.163 952.667,730.462 C961.267,721.162 969.066,711.362 975.967,700.862 C988.167,682.462 983.067,657.662 964.667,645.462 C957.867,640.962 950.267,638.862 942.667,638.862 C929.667,638.862 916.967,645.162 909.267,656.762 C906.167,661.461 902.767,665.961 899.067,670.362 C874.067,700.162 836.567,721.562 791.567,731.462 C750.067,740.563 704.267,737.862 663.368,727.263 C620.368,716.063 578.767,697.363 534.567,677.462 C487.567,656.362 439.067,634.462 386.468,621.063 C361.468,614.663 335.268,611.563 308.768,611.563 C272.668,611.563 235.968,617.462 201.068,629.063 C170.568,639.263 142.268,653.462 116.868,671.363 C90.068,690.263 67.168,712.763 48.768,738.363 C47.568,740.063 46.568,741.763 45.668,743.563 C36.968,760.863 41.768,782.563 58.068,794.263 z" fill="#000000"/>
      <path d="M923.367,467.562 C923.367,545.49 860.194,608.662 782.267,608.662 C704.34,608.662 641.167,545.49 641.167,467.562 C641.167,389.635 704.34,326.462 782.267,326.462 C860.194,326.462 923.367,389.635 923.367,467.562 z" fill="#000000"/>
    </g>
  </g>
  <g id="Ski_&amp;_Berg" display="none">
    <path d="M457.054,161.028 C457.054,110.008 498.394,68.667 549.415,68.667 C600.435,68.667 641.776,110.008 641.776,161.028 C641.776,212.048 600.435,253.389 549.415,253.389 C498.394,253.389 457.054,212.048 457.054,161.028 z M338.831,475.056 C349.952,441.806 405.368,253.389 405.368,253.389 C372.118,253.389 324.091,249.694 279.757,286.639 C235.424,323.583 205.868,386.389 198.479,434.417 C191.091,478.75 224.341,493.528 261.285,504.611 C298.193,515.694 331.479,500.917 338.831,475.056 z M822.656,347.708 C816.191,334.778 803.149,327.684 789.554,327.647 L789.554,290.333 L752.609,290.333 L752.609,341.391 L649.497,392.965 L557.506,297.907 C557.321,297.722 557.062,297.648 556.841,297.464 C551.521,290.924 541.804,285.309 534.637,282.944 L442.276,260.778 L372.081,500.917 C364.693,545.25 364.693,578.5 409.026,615.444 L530.943,715.859 L530.943,918.389 C530.943,938.819 547.457,955.333 567.887,955.333 C588.354,955.333 604.831,938.819 604.831,918.389 L604.831,696.722 C604.831,686.895 600.989,677.511 594.007,670.602 L588.206,664.802 L501.387,552.639 L541.398,387.534 L615.213,463.788 C622.343,471.176 631.986,475.056 641.776,475.056 C647.391,475.056 653.081,473.763 658.29,471.176 L752.609,423.998 L752.609,955.333 L789.554,955.333 L789.554,405.526 L806.068,397.251 C824.355,388.125 831.781,365.959 822.656,347.708 z M364.693,608.056 L346.22,726.278 C346.22,726.352 346.22,726.462 346.22,726.61 L274.954,904.682 C267.381,923.672 276.58,945.174 295.533,952.747 C300.04,954.557 304.695,955.333 309.276,955.333 C323.943,955.333 337.797,946.614 343.634,932.095 L414.789,754.171 C417.191,750.329 419.149,746.043 420.146,741.092 L434.924,689.37 C386.896,648.694 364.693,633.917 364.693,608.056 z" fill="#000000" id="Icon1" display="none"/>
    <path d="M241.631,286.235 C191.512,286.235 150.875,245.598 150.875,195.479 C150.875,145.36 191.512,104.723 241.631,104.723 C291.749,104.723 332.387,145.36 332.387,195.479 C332.387,245.598 291.749,286.235 241.631,286.235 L241.631,286.235 z M347.547,338.905 L421.45,368.638 L358.869,417.579 C341.844,430.9 338.839,455.494 352.147,472.519 C359.875,482.381 371.38,487.545 383.008,487.545 C391.435,487.545 399.935,484.834 407.086,479.241 L453.979,442.565 L499.437,478.308 L407.013,548.114 C398.12,554.823 392.514,564.992 391.595,576.093 C390.675,587.169 394.502,598.147 402.156,606.23 L495.095,704.518 L457.966,722.745 C438.573,732.263 430.564,755.716 440.094,775.133 C446.89,788.981 460.799,797.028 475.249,797.028 C481.05,797.028 486.926,795.727 492.47,793.004 L577.289,751.349 C588.451,745.866 596.351,735.391 598.546,723.15 C600.766,710.908 597.013,698.36 588.476,689.32 L489.072,584.225 L587.139,510.175 C596.829,502.853 602.569,491.457 602.704,479.326 C602.802,467.183 597.295,455.678 587.752,448.171 L517.468,392.913 L523.135,388.484 C534.162,379.862 539.743,366.013 537.781,352.165 C535.818,338.317 526.606,326.566 513.629,321.341 L376.74,266.303 C356.698,258.232 333.895,267.947 325.837,288.002 C317.778,308.056 327.492,330.834 347.547,338.905 L347.547,338.905 z M518.388,301.899 C521.528,301.899 524.717,300.942 527.477,298.98 L793.796,108.513 C800.824,103.484 802.456,93.708 797.427,86.68 C792.398,79.652 782.622,78.008 775.581,83.049 L509.262,273.503 C502.234,278.532 500.602,288.308 505.631,295.349 C508.698,299.617 513.494,301.899 518.388,301.899 L518.388,301.899 z M564.103,353.796 C567.158,358.077 571.966,360.346 576.848,360.346 C580,360.346 583.177,359.402 585.924,357.427 L852.256,166.985 C859.272,161.956 860.903,152.18 855.874,145.152 C850.857,138.124 841.094,136.492 834.053,141.521 L567.734,331.963 C560.693,336.98 559.074,346.768 564.103,353.796 L564.103,353.796 z M871.783,675.288 C868.287,667.364 859.039,663.794 851.127,667.315 L307.56,908.305 C286.561,917.602 262.36,911.224 248.671,892.776 L245.151,888.029 C240.012,881.099 230.211,879.627 223.256,884.791 C216.314,889.942 214.854,899.755 220.018,906.698 L223.538,911.432 C239.092,932.407 262.949,943.876 287.591,943.876 C298.545,943.876 309.645,941.607 320.243,936.921 L863.823,695.944 C871.71,692.436 875.279,683.187 871.783,675.288 L871.783,675.288 z" fill="#000000" id="Icon2"/>
  </g>
  <g id="Handball" display="none">
    <path d="M401.843,201.993 C401.843,234.075 425.444,260.082 454.558,260.082 C483.672,260.082 507.273,234.075 507.273,201.993 C507.273,169.912 483.672,143.905 454.558,143.905 C425.444,143.905 401.843,169.912 401.843,201.993 z" fill="#000000"/>
    <path d="M826.666,89.485 C858.749,89.485 884.741,115.485 884.741,147.561 C884.741,179.645 858.749,205.655 826.666,205.655 C794.583,205.655 768.572,179.643 768.572,147.561 C768.572,115.485 794.584,89.485 826.666,89.485 z" fill="#000000"/>
    <path d="M754.667,165.333 C760.164,172.296 769.622,182.923 773.906,190.667 C776.448,195.36 781.011,195.354 785.333,204 C787.841,209.014 790.275,206.432 793.333,210.667 C794.642,212.505 802.185,212.572 803.681,214.258 L733.529,275.886 C729.559,279.372 724.899,281.766 719.926,282.852 L591.671,311.001 C589.948,311.374 588.244,311.491 586.546,311.563 L592.233,553.097 L613.187,587.654 L784,577.333 C829.333,582.667 823.767,591.552 834.667,613.333 C845.56,635.103 832,650.667 806.667,664 L641.333,684 C602.667,692 577.881,691.497 566.072,672.057 L534.502,619.971 L479.209,700.92 L392.669,931.982 C386.163,949.349 370.937,959.849 354.866,959.849 C349.681,959.849 344.397,958.757 339.298,956.437 C318.448,946.945 308.5,920.625 317.107,897.634 L405.643,661.237 C406.965,657.714 408.69,654.391 410.778,651.328 L463.554,574.081 L432.271,370.902 L295.793,440.612 C291.487,442.808 286.956,443.844 282.488,443.844 C270.472,443.844 258.976,436.298 253.611,423.49 C246.257,405.931 253.205,385.123 269.158,377.01 L390.666,315.215 L424.45,297.693 C427.554,296.089 430.769,295.241 434.005,294.802 L570.74,245.782 C573.385,244.247 576.181,242.97 579.257,242.283 L582.4,241.61 L584.874,240.724 L584.883,241.059 L699.948,215.81 L754.667,165.333 z" fill="#000000"/>
  </g>
  <g id="Gymnastik" display="none">
    <g id="Icon_1" display="none">
      <path d="M714.195,220.796 C733.081,220.796 749.034,213.958 762.058,200.283 C775.083,186.608 781.594,170.329 781.594,151.444 C781.594,132.558 775.083,116.279 762.058,102.604 C749.032,88.929 733.077,82.092 714.195,82.092 C695.308,82.092 679.353,88.929 666.333,102.604 C653.308,116.279 646.797,132.558 646.797,151.444 C646.797,170.329 653.308,186.608 666.333,200.283 C679.357,213.958 695.31,220.796 714.195,220.796 z" fill="#010002"/>
      <path d="M764.012,236.424 L666.333,236.424 L496.371,62.556 C489.86,56.031 481.72,52.448 471.952,51.811 C462.184,51.174 454.043,54.429 447.532,61.579 C441.017,68.743 437.436,77.208 436.787,86.976 C436.137,96.744 439.067,104.884 445.578,111.395 L623.354,293.078 L623.354,896.734 C623.354,907.155 626.935,916.27 634.099,924.085 C641.263,931.899 650.054,935.806 660.472,935.806 C670.891,935.806 680.008,931.899 687.822,924.085 C695.636,916.27 699.544,907.155 699.544,896.734 L699.544,568.533 L730.801,568.533 L730.801,896.734 C730.801,907.155 734.382,916.27 741.546,924.085 C748.709,931.899 757.5,935.806 767.919,935.806 C778.337,935.806 787.455,931.899 795.269,924.085 C803.083,916.27 806.991,907.155 806.991,896.734 L806.991,293.078 L982.813,111.395 C989.324,104.884 992.581,96.744 992.581,86.976 C992.581,77.208 989,68.743 981.836,61.579 C974.672,54.415 966.207,51.161 956.439,51.811 C946.671,52.462 938.531,56.045 932.02,62.556 L764.012,236.424 z" fill="#010002"/>
      <path d="M406.507,502.111 C394.785,490.39 381.11,484.529 365.482,484.529 L222.87,484.529 C207.242,484.529 194.217,490.39 183.799,502.111 L41.187,648.63 C34.676,656.444 31.419,665.235 31.419,675.003 C31.419,684.771 35,692.91 42.164,699.423 C49.328,705.932 57.793,709.191 67.561,709.191 C77.329,709.191 85.469,705.284 91.98,697.469 L201.381,584.162 L201.381,736.541 L78.305,736.541 C66.584,736.541 56.816,740.448 49.002,748.262 C41.187,756.077 37.28,765.845 37.28,777.562 C37.28,790.589 41.187,801.005 49.002,808.819 L189.659,953.384 C194.87,962.504 203.008,968.364 214.079,970.967 C225.15,973.573 235.242,971.619 244.36,965.106 C254.778,959.898 261.616,951.431 264.872,939.709 C268.121,927.988 266.492,916.919 259.988,906.498 L179.891,824.448 L181.845,824.448 L410.414,824.448 L330.317,906.498 C325.107,916.919 323.806,927.988 326.41,939.709 C329.014,951.431 335.527,960.55 345.946,967.059 C356.364,972.272 366.785,973.573 377.203,970.967 C387.621,968.364 396.088,962.504 402.6,953.384 L541.304,808.819 C550.421,801.005 554.979,791.237 554.979,779.516 C554.979,767.798 550.745,757.702 542.28,749.239 C533.816,740.772 524.372,736.541 513.954,736.541 L388.924,736.541 L388.924,586.115 L498.325,697.469 C504.836,705.284 512.651,709.191 521.768,709.191 C530.885,709.191 539.024,705.932 546.188,699.423 C553.351,692.91 556.932,684.771 556.932,675.003 C556.932,665.235 553.676,656.444 547.164,648.63 L406.507,502.111 L406.507,502.111 z" fill="#010002"/>
      <path d="M296.129,470.854 C315.015,470.854 330.97,464.016 343.992,450.341 C357.017,436.666 363.528,420.061 363.528,400.525 C363.528,380.989 357.017,364.384 343.992,350.709 C330.968,337.034 315.015,330.196 296.129,330.196 C277.244,330.196 261.291,337.034 248.267,350.709 C235.242,364.384 228.731,380.989 228.731,400.525 C228.731,420.061 235.242,436.666 248.267,450.341 C261.291,464.016 277.244,470.854 296.129,470.854 z" fill="#010002"/>
    </g>
    <g id="Icon_2">
      <path d="M805.92,37.954 C653.854,51.356 541.642,127.259 476.227,236.987 C432.388,291.944 344.816,459.727 312.968,547.559 C255.221,656.782 204.865,786.736 165.457,903.886 C141.367,975.526 249.532,1022.264 273.759,950.302 C303.231,862.654 338.836,767.891 379.072,679.951 C419.002,769.317 459.575,858.391 503.138,946.055 C536.903,1014.106 638.505,954.427 604.863,886.605 C560.011,796.366 518.349,704.685 477.301,612.697 C477.822,610.918 478.481,609.186 479.033,607.422 C485.872,609.37 493.417,609.968 501.728,608.388 C564.535,596.596 627.342,584.835 690.196,573.044 C717.045,567.999 727.334,538.619 723.102,515.097 C710.406,444.608 670.246,395.57 620.258,349.17 C612.836,323.93 588.088,301.604 560.625,279.416 C616.302,189.407 707.201,140.553 825.517,130.126 C885.901,124.836 865.783,32.695 805.92,37.954 z M577.078,438.612 C592.611,454.774 605.829,471.779 615.811,491.468 C585.42,497.172 555.013,502.861 524.621,508.565 C539.955,483.877 557.604,460.57 577.078,438.612 z" fill="#010002"/>
      <path d="M787.995,277.484 C787.995,322.156 751.781,358.37 707.109,358.37 C662.437,358.37 626.223,322.156 626.223,277.484 C626.223,232.812 662.437,196.598 707.109,196.598 C751.781,196.598 787.995,232.812 787.995,277.484 z" fill="#010002"/>
    </g>
  </g>
  <g id="Gesang" display="none">
    <path d="M501.578,421.171 L847.526,365.063 L847.526,834.101 C847.526,872.922 818.602,903.927 773.452,915.353 C723.843,927.628 676.017,906.858 666.461,868.844 C656.947,830.745 689.439,789.928 739.006,777.526 C761.39,772.004 783.476,773.151 801.909,779.649 L801.909,497.029 L548.384,543.411 L547.195,894.923 C546.982,928.18 516.911,960.927 473.758,971.588 C424.785,983.863 373.392,960.545 367.913,925.674 C358.526,888.042 390.594,847.65 439.736,835.332 C461.822,829.811 483.442,830.915 501.578,837.286 L501.578,421.171 z M371.523,593.19 L372.755,158.726 C372.755,158.726 467.387,153.672 559.937,298.804 C559.937,298.804 560.192,223.881 489.048,169.047 C350.117,72.037 350.499,49.102 350.499,49.102 C323.995,52.202 321.277,72.335 321.277,72.335 L321.277,529.819 C301.399,522.853 277.614,521.622 253.234,527.695 C199.292,541.032 164.039,585.587 174.36,626.999 C180.434,665.268 236.839,690.964 290.738,677.415 C338.097,665.607 371.184,629.845 371.438,593.19 L371.523,593.19 z M623.138,312.439 C639.617,308.319 651.128,295.874 651.213,283.132 L651.255,283.132 L651.68,131.968 C651.68,131.968 684.597,130.226 716.792,180.728 C716.792,180.728 716.835,154.649 692.072,135.62 C643.737,101.854 643.907,93.869 643.907,93.869 C634.69,94.931 633.714,101.939 633.714,101.939 L633.714,261.13 C626.833,258.667 618.593,258.242 610.098,260.323 C591.282,264.953 579.092,280.498 582.66,294.897 C584.784,308.234 604.407,317.153 623.138,312.439 z M786.237,312.821 C797.705,309.975 805.69,301.268 805.775,292.391 L806.072,187.099 C806.072,187.099 829.008,185.867 851.434,221.035 C851.434,221.035 851.476,202.856 834.274,189.605 C800.593,166.074 800.678,160.51 800.678,160.51 C794.264,161.275 793.585,166.159 793.585,166.159 L793.585,277.058 C788.785,275.359 783.009,275.062 777.105,276.548 C764.023,279.776 755.486,290.565 757.992,300.588 C759.436,309.89 773.112,316.134 786.237,312.821 z" fill="#010002"/>
  </g>
  <g id="Fussball" display="none">
    <g>
      <path d="M644.792,113.679 C644.792,150.292 615.111,179.973 578.498,179.973 C541.885,179.973 512.204,150.292 512.204,113.679 C512.204,77.066 541.885,47.385 578.498,47.385 C615.111,47.385 644.792,77.066 644.792,113.679 z" fill="#000000"/>
      <path d="M847.169,766.889 C883.784,766.889 913.447,796.562 913.447,833.169 C913.447,869.784 883.784,899.469 847.169,899.469 C810.553,899.469 780.869,869.782 780.869,833.169 C780.869,796.562 810.555,766.889 847.169,766.889 z" fill="#000000"/>
      <path d="M379.008,553.817 L193.372,451.481 C168.527,437.801 137.275,446.826 123.568,471.684 C109.868,496.529 118.913,527.789 143.767,541.489 L370.72,666.6 C394.07,679.453 423.409,672.328 438.26,650.142 L477.961,590.698 L547.497,683.082 L656.328,946.783 C664.511,966.604 683.658,978.586 703.87,978.586 C710.39,978.586 717.035,977.34 723.448,974.692 C749.669,963.86 762.179,933.821 751.354,907.583 L640.013,637.794 C638.35,633.773 636.181,629.981 633.555,626.484 L567.185,538.326 L606.526,306.447 L778.158,386.004 C783.573,388.509 789.272,389.693 794.891,389.693 C810.002,389.693 824.46,381.08 831.207,366.464 C840.455,346.424 831.717,322.677 811.654,313.417 L658.847,242.893 L616.361,222.897 C612.458,221.066 608.415,220.098 604.346,219.598 L432.389,163.653 C429.063,161.901 425.546,160.444 421.678,159.66 L417.726,158.891 L414.614,157.88 L414.603,158.263 L269.9,129.447 L175.441,54.142 C158.2,40.376 133.035,43.194 119.277,60.482 C105.507,77.738 108.349,102.888 125.605,116.642 L227.668,198.009 C232.66,201.987 238.521,204.719 244.776,205.959 L406.066,238.084 C408.233,238.511 410.376,238.644 412.512,238.726 L405.36,514.378 L379.008,553.817 z" fill="#000000"/>
    </g>
  </g>
</svg>
