<?xml version="1.0" encoding="UTF-8"?>
<!DOCTYPE svg PUBLIC "-//W3C//DTD SVG 1.1//EN" "http://www.w3.org/Graphics/SVG/1.1/DTD/svg11.dtd">
<svg version="1.1" xmlns="http://www.w3.org/2000/svg" xmlns:xlink="http://www.w3.org/1999/xlink" x="0" y="0" width="142" height="142" viewBox="0, 0, 142, 142">
  <g id="Layer_1">
    <path d="M69.624,63.467 C68.452,62.99 67.333,62.108 66.337,60.993 L66.118,60.993 L67.066,70.907 C67.878,71.843 69.46,73.113 72.154,73.113 C73.991,73.113 75.615,72.527 76.926,71.825 L77.963,60.993 L77.666,60.993 C76.024,62.656 74.014,63.896 71.811,63.896 C71.062,63.896 70.328,63.754 69.624,63.467" fill="#1A1919"/>
    <path d="M7.164,77.245 L11.601,87.889 L57.973,83.014 L56.41,71.773 L7.164,77.245" fill="#1A1919"/>
    <path d="M87.698,71.592 L86.079,83.23 L130.401,87.889 L134.836,77.245 L87.698,71.592" fill="#1A1919"/>
    <path d="M72.154,75.315 C70.107,75.315 68.545,74.735 67.365,74.003 L68.127,81.946 L69.995,81.749 L72.007,81.749 L75.936,82.163 L76.683,74.359 C75.357,74.907 73.848,75.315 72.154,75.315" fill="#1A1919"/>
    <path d="M79.98,58.101 L76.681,92.524 L82.388,97.206 L87.136,63.073 L79.98,58.101" fill="#1A1919"/>
    <path d="M56.948,63.073 L61.693,97.206 L67.401,92.524 L64.102,58.101 L56.948,63.073" fill="#1A1919"/>
    <path d="M70.278,61.865 C70.787,62.071 71.301,62.166 71.811,62.166 C73.041,62.166 74.259,61.608 75.37,60.743 C75.424,60.702 75.477,60.656 75.529,60.613 C75.869,60.339 76.196,60.045 76.515,59.722 C76.527,59.707 76.538,59.692 76.552,59.679 C76.865,59.356 77.16,59.01 77.446,58.654 C77.484,58.608 77.521,58.564 77.555,58.517 C77.829,58.163 78.088,57.798 78.332,57.424 C78.376,57.356 78.42,57.287 78.464,57.217 C78.697,56.846 78.918,56.471 79.117,56.096 C79.147,56.036 79.177,55.98 79.204,55.92 C79.407,55.528 79.592,55.136 79.749,54.756 C81.313,50.908 81.069,47.663 76.776,45.825 C76.215,45.585 75.643,45.402 75.067,45.247 C74.928,45.209 74.791,45.173 74.655,45.14 C74.086,45.006 73.514,44.898 72.948,44.842 C72.909,44.838 72.87,44.839 72.828,44.836 C72.298,44.789 71.777,44.786 71.262,44.808 C71.126,44.814 70.987,44.818 70.854,44.827 C70.314,44.87 69.778,44.939 69.274,45.055 C69.235,45.064 69.199,45.079 69.16,45.087 C68.69,45.202 68.247,45.355 67.82,45.531 C67.705,45.579 67.59,45.629 67.477,45.681 C67.033,45.89 66.61,46.122 66.236,46.399 C66.219,46.41 66.208,46.424 66.19,46.435 C65.834,46.705 65.521,47.017 65.237,47.349 C65.163,47.437 65.091,47.524 65.022,47.617 C64.747,47.98 64.503,48.367 64.33,48.795 C62.762,52.637 66.432,60.295 70.278,61.865" fill="#1A1919"/>
  </g>
</svg>
