<?xml version="1.0" encoding="UTF-8"?>
<!DOCTYPE svg PUBLIC "-//W3C//DTD SVG 1.1//EN" "http://www.w3.org/Graphics/SVG/1.1/DTD/svg11.dtd">
<svg version="1.1" xmlns="http://www.w3.org/2000/svg" xmlns:xlink="http://www.w3.org/1999/xlink" x="0" y="0" width="142" height="142" viewBox="0, 0, 142, 142">
  <g id="Layer_1">
    <path d="M70.747,52.495 C68.747,49.233 70.985,44.197 75.331,41.632 C79.037,39.448 81.579,41.037 83.581,44.302 C85.581,47.564 86.948,53.201 83.688,55.203 C80.426,57.209 72.749,55.757 70.747,52.495" fill="#1A1919"/>
    <path d="M105.027,14.901 C105.027,17.141 103.206,18.96 100.964,18.96 C98.721,18.96 96.905,17.141 96.905,14.901 C96.905,12.655 98.721,10.838 100.964,10.838 C103.206,10.838 105.027,12.655 105.027,14.901" fill="#1A1919"/>
    <path d="M75.6,18.238 C73.611,21.542 70.33,23.677 67.24,23.677 C66.121,23.677 65.093,23.4 64.186,22.854 C62.509,21.846 61.449,20.031 61.194,17.743 C60.937,15.409 61.549,12.876 62.915,10.608 C64.901,7.304 68.183,5.168 71.275,5.168 C72.394,5.168 73.421,5.444 74.329,5.991 C77.826,8.096 78.396,13.589 75.6,18.238 z M60.502,28.387 L61.417,24.124 C61.842,24.54 62.301,24.896 62.783,25.186 C63.181,25.425 63.606,25.627 64.081,25.796 L60.502,28.387 z M75.732,3.661 C74.511,2.927 73.134,2.554 71.641,2.554 C67.666,2.554 63.475,5.256 60.961,9.434 C58.773,13.07 58.158,17.275 59.309,20.695 L57.653,30.028 L51.052,40.998 L50.94,41.183 L51.125,41.295 L53.391,42.66 L53.577,42.772 L53.689,42.586 L60.196,31.769 L68.705,26.089 C72.144,25.402 75.448,22.909 77.549,19.411 C79.268,16.557 80.036,13.355 79.706,10.396 C79.379,7.395 77.965,5.003 75.732,3.661" fill="#1A1919"/>
    <path d="M48.35,36.896 C48.464,36.943 48.582,36.994 48.706,37.046 C48.582,36.994 48.464,36.943 48.35,36.896" fill="#1A1919"/>
    <path d="M48.908,37.134 C49.048,37.192 49.194,37.257 49.343,37.323 C49.194,37.257 49.048,37.192 48.908,37.134" fill="#1A1919"/>
    <path d="M47.866,36.703 C47.954,36.737 48.049,36.774 48.146,36.815 C48.049,36.774 47.954,36.737 47.866,36.703" fill="#1A1919"/>
    <path d="M47.077,36.457 C47.049,36.457 47.033,36.463 47.026,36.474 C47.035,36.459 47.072,36.46 47.116,36.463 C47.106,36.463 47.085,36.457 47.077,36.457" fill="#1A1919"/>
    <path d="M47.205,36.48 C47.243,36.489 47.285,36.5 47.336,36.515 C47.285,36.5 47.243,36.489 47.205,36.48" fill="#1A1919"/>
    <path d="M47.482,36.561 C47.544,36.584 47.611,36.607 47.686,36.634 C47.611,36.607 47.544,36.584 47.482,36.561" fill="#1A1919"/>
    <path d="M49.53,37.408 C49.701,37.482 49.88,37.561 50.056,37.642 C49.88,37.561 49.701,37.482 49.53,37.408" fill="#1A1919"/>
    <path d="M50.199,37.708 C50.43,37.812 50.663,37.917 50.897,38.025 C50.663,37.917 50.431,37.812 50.199,37.708" fill="#1A1919"/>
    <path d="M52.348,57.957 C51.007,52.686 52.016,47.813 53.194,44.484 L52.72,44.199 L52.533,44.087 L50.27,42.723 L50.083,42.612 L48.648,41.751 L49.514,40.32 L49.625,40.139 L50.897,38.024 C50.664,37.917 50.43,37.811 50.2,37.707 C50.151,37.684 50.105,37.665 50.056,37.642 C49.88,37.56 49.701,37.482 49.53,37.407 C49.467,37.378 49.408,37.353 49.344,37.323 C49.194,37.257 49.048,37.192 48.908,37.134 C48.838,37.103 48.772,37.075 48.706,37.046 C48.582,36.994 48.464,36.943 48.349,36.896 C48.279,36.867 48.213,36.841 48.146,36.815 C48.049,36.774 47.953,36.737 47.866,36.703 C47.803,36.678 47.743,36.655 47.686,36.634 C47.611,36.607 47.543,36.584 47.481,36.561 C47.43,36.544 47.381,36.528 47.337,36.515 C47.285,36.5 47.243,36.489 47.206,36.48 C47.171,36.474 47.14,36.466 47.116,36.463 C47.071,36.46 47.035,36.459 47.026,36.474 C39.993,50.454 45.92,64.054 45.92,64.054 C45.92,67.182 68.306,68.616 68.306,68.616 L67.339,58.167 L52.348,57.957" fill="#1A1919"/>
    <path d="M59.943,91.349 L57.214,99.801 C55.91,100.646 63.784,102.368 66.113,105.758 C67.094,107.185 67.713,109.421 67.537,110.346 L67.056,112.368 C67.035,112.459 67.035,112.459 66.981,112.494 C67.002,112.641 66.967,112.826 66.858,113.142 L30.624,125.342 L38.292,136.641 L54.792,130.348 C55.619,130.027 56.41,129.652 57.332,129.109 C58.767,128.376 59.559,128 61.431,126.729 C59.653,128.497 58.94,129.225 58.137,130.415 C57.807,130.88 57.333,131.602 56.368,133.145 L52.242,139.445 L64.798,139.445 L74.219,123.038 C77.041,118.063 78.018,115.708 78.435,112.527 C78.883,108.923 79.496,104.724 76.726,100.646 C75.043,98.166 71.996,93.122 59.943,91.349" fill="#1A1919"/>
    <path d="M68.995,57.972 L68.998,58.014 L70.145,70.404 L68.2,70.277 C67.144,70.213 66.148,70.137 65.183,70.063 C65.106,70.369 65.06,70.554 65.06,70.554 L59.947,89.666 L60.184,89.699 C69.282,91.039 73.574,94.174 75.956,96.85 L88.538,71.576 L87.138,58.368 L68.995,57.972" fill="#1A1919"/>
    <path d="M101.228,29.898 L95.42,47.857 L88.639,56.447 L88.796,58.191 L89.975,69.318 L103.928,46.632 L111.376,22.531 L101.228,29.898" fill="#1A1919"/>
  </g>
</svg>
